<svg width="14" height="13" xmlns="http://www.w3.org/2000/svg"><path fill-rule="evenodd" clip-rule="evenodd" d="M14 6.1c0 3.36-3.13 6.09-7 6.09-.7 0-1.38-.09-2.05-.27-.51.26-1.69.76-3.66 1.08-.18.03-.31-.16-.24-.32.3-.73.59-1.7.67-2.58A5.65 5.65 0 0 1 0 6.1C0 2.72 3.13 0 7 0s7 2.73 7 6.1Zm-9.63 0a.87.87 0 0 1-.87.87.88.88 0 0 1-.88-.88.87.87 0 0 1 .88-.87.88.88 0 0 1 .88.87Zm3.5 0a.87.87 0 0 1-.87.87.88.88 0 0 1-.88-.88.87.87 0 0 1 .88-.87.88.88 0 0 1 .88.87Zm2.63.87a.88.88 0 0 0 .88-.88.87.87 0 0 0-.88-.87.88.88 0 0 0-.88.87.87.87 0 0 0 .88.88Z" fill="#1A1A1A"/></svg>