<svg width="26" height="14" xmlns="http://www.w3.org/2000/svg"><path d="M23.17 9.63c2.03 1.76 2.45 2.4 2.51 2.5.84 1.3-.92 1.46-.92 1.46h-3.73s-.9.01-1.68-.5c-1.26-.8-2.58-2.38-3.51-2.1-.78.22-.78 1.26-.78 2.14 0 .32-.27.46-.9.46h-1.17c-2.04 0-4.25-.67-6.46-2.94C3.41 7.45.67.98.67.98S.51.66.68.46c.2-.22.75-.2.75-.2h3.6s.35.07.6.24c.2.14.3.4.3.4s.61 1.97 1.39 3.22c1.5 2.46 2.2 2.52 2.72 2.25.75-.38.5-2.98.5-2.98s.04-1.12-.35-1.62c-.3-.39-.88-.6-1.13-.62-.2-.03.14-.38.57-.58.58-.25 1.36-.32 2.72-.3a6.9 6.9 0 0 1 1.77.16c1.25.28.94 1.03.94 3.65 0 .83-.11 2.01.53 2.4.28.17 1.23.38 2.92-2.32a17.3 17.3 0 0 0 1.44-3.4s.13-.24.34-.36c.2-.12.2-.11.49-.11l3.8-.03c.63 0 1.23 0 1.33.36.15.53-.47 2.32-2.02 4.26-2.55 3.2-2.83 2.9-.72 4.75Z" fill="#36BA5F"/></svg>